<mxfile host="65bd71144e">
    <diagram id="bbXB1RMLM6XHRy81QUQW" name="Page-1">
        <mxGraphModel dx="1853" dy="1262" grid="1" gridSize="10" guides="1" tooltips="1" connect="1" arrows="1" fold="1" page="0" pageScale="1" pageWidth="850" pageHeight="1100" math="0" shadow="0">
            <root>
                <mxCell id="0"/>
                <mxCell id="1" parent="0"/>
                <mxCell id="4" value="Listen to the queue" style="edgeStyle=none;html=1;exitX=0.5;exitY=0;exitDx=0;exitDy=0;exitPerimeter=0;entryX=0;entryY=0.5;entryDx=0;entryDy=0;fontSize=10;" edge="1" parent="1" source="2" target="3">
                    <mxGeometry relative="1" as="geometry"/>
                </mxCell>
                <mxCell id="2" value="Message Queue" style="shape=cylinder3;whiteSpace=wrap;html=1;boundedLbl=1;backgroundOutline=1;size=15;rotation=90;horizontal=0;" vertex="1" parent="1">
                    <mxGeometry x="120" y="115" width="60" height="150" as="geometry"/>
                </mxCell>
                <mxCell id="6" value="Http Request" style="html=1;exitX=1;exitY=0.5;exitDx=0;exitDy=0;entryX=0;entryY=0.75;entryDx=0;entryDy=0;fontSize=10;" edge="1" parent="1" source="3" target="5">
                    <mxGeometry relative="1" as="geometry"/>
                </mxCell>
                <mxCell id="21" style="edgeStyle=orthogonalEdgeStyle;html=1;exitX=0.5;exitY=1;exitDx=0;exitDy=0;entryX=0.5;entryY=0;entryDx=0;entryDy=0;fontSize=10;" edge="1" parent="1" source="3" target="7">
                    <mxGeometry relative="1" as="geometry"/>
                </mxCell>
                <mxCell id="3" value="Main Queue Service" style="shape=process;whiteSpace=wrap;html=1;backgroundOutline=1;fontSize=10;" vertex="1" parent="1">
                    <mxGeometry x="360" y="160" width="120" height="60" as="geometry"/>
                </mxCell>
                <mxCell id="20" value="Http Response" style="html=1;exitX=0;exitY=1;exitDx=0;exitDy=0;entryX=1;entryY=0.75;entryDx=0;entryDy=0;fontSize=10;" edge="1" parent="1" source="5" target="3">
                    <mxGeometry relative="1" as="geometry"/>
                </mxCell>
                <mxCell id="5" value="SMS Api" style="shape=process;whiteSpace=wrap;html=1;backgroundOutline=1;fontSize=10;" vertex="1" parent="1">
                    <mxGeometry x="620" y="90" width="120" height="60" as="geometry"/>
                </mxCell>
                <mxCell id="10" value="Y" style="edgeStyle=orthogonalEdgeStyle;html=1;exitX=1;exitY=0.5;exitDx=0;exitDy=0;entryX=0.5;entryY=1;entryDx=0;entryDy=0;fontSize=10;" edge="1" parent="1" source="7" target="9">
                    <mxGeometry relative="1" as="geometry"/>
                </mxCell>
                <mxCell id="22" value="N" style="html=1;exitX=0;exitY=0.5;exitDx=0;exitDy=0;entryX=1;entryY=0.5;entryDx=0;entryDy=0;fontSize=10;" edge="1" parent="1" source="7" target="13">
                    <mxGeometry relative="1" as="geometry"/>
                </mxCell>
                <mxCell id="7" value="Http Response Is OK?" style="rhombus;whiteSpace=wrap;html=1;fontSize=10;" vertex="1" parent="1">
                    <mxGeometry x="355" y="320" width="130" height="130" as="geometry"/>
                </mxCell>
                <mxCell id="12" value="SmsSent" style="edgeStyle=none;html=1;exitX=1;exitY=0.5;exitDx=0;exitDy=0;entryX=0.5;entryY=1;entryDx=0;entryDy=0;entryPerimeter=0;fontSize=10;" edge="1" parent="1" source="9" target="11">
                    <mxGeometry relative="1" as="geometry"/>
                </mxCell>
                <mxCell id="9" value="Publish Event" style="shape=process;whiteSpace=wrap;html=1;backgroundOutline=1;fontSize=10;" vertex="1" parent="1">
                    <mxGeometry x="800" y="90" width="120" height="60" as="geometry"/>
                </mxCell>
                <mxCell id="11" value="Event Queue" style="shape=cylinder3;whiteSpace=wrap;html=1;boundedLbl=1;backgroundOutline=1;size=15;rotation=90;horizontal=0;" vertex="1" parent="1">
                    <mxGeometry x="1110" y="45" width="60" height="150" as="geometry"/>
                </mxCell>
                <mxCell id="16" style="edgeStyle=orthogonalEdgeStyle;html=1;exitX=0;exitY=0.5;exitDx=0;exitDy=0;entryX=0.5;entryY=1;entryDx=0;entryDy=0;entryPerimeter=0;fontSize=10;" edge="1" parent="1" source="13" target="14">
                    <mxGeometry relative="1" as="geometry"/>
                </mxCell>
                <mxCell id="13" value="Publish Message to Dead Letter" style="shape=process;whiteSpace=wrap;html=1;backgroundOutline=1;fontSize=10;" vertex="1" parent="1">
                    <mxGeometry x="-20" y="355" width="120" height="60" as="geometry"/>
                </mxCell>
                <mxCell id="18" value="Listen to the queue" style="edgeStyle=orthogonalEdgeStyle;html=1;exitX=0.5;exitY=0;exitDx=0;exitDy=0;exitPerimeter=0;entryX=0;entryY=0.5;entryDx=0;entryDy=0;fontSize=10;" edge="1" parent="1" source="14" target="17">
                    <mxGeometry relative="1" as="geometry"/>
                </mxCell>
                <mxCell id="14" value="Dead Letter Queue" style="shape=cylinder3;whiteSpace=wrap;html=1;boundedLbl=1;backgroundOutline=1;size=15;rotation=90;horizontal=0;" vertex="1" parent="1">
                    <mxGeometry x="120" y="-25" width="60" height="150" as="geometry"/>
                </mxCell>
                <mxCell id="26" style="edgeStyle=none;html=1;exitX=0.5;exitY=0;exitDx=0;exitDy=0;entryX=0.5;entryY=1;entryDx=0;entryDy=0;fontSize=10;" edge="1" parent="1" source="17" target="25">
                    <mxGeometry relative="1" as="geometry"/>
                </mxCell>
                <mxCell id="17" value="Dead Queue Service" style="shape=process;whiteSpace=wrap;html=1;backgroundOutline=1;fontSize=10;" vertex="1" parent="1">
                    <mxGeometry x="360" y="20" width="120" height="60" as="geometry"/>
                </mxCell>
                <mxCell id="23" value="Http Request" style="html=1;exitX=1;exitY=0.75;exitDx=0;exitDy=0;entryX=0;entryY=0.5;entryDx=0;entryDy=0;fontSize=10;" edge="1" parent="1" source="17" target="5">
                    <mxGeometry relative="1" as="geometry">
                        <mxPoint x="510" y="55" as="sourcePoint"/>
                        <mxPoint x="650" as="targetPoint"/>
                    </mxGeometry>
                </mxCell>
                <mxCell id="24" value="Http Response" style="html=1;exitX=0;exitY=0.25;exitDx=0;exitDy=0;entryX=1;entryY=0.5;entryDx=0;entryDy=0;fontSize=10;" edge="1" parent="1" source="5" target="17">
                    <mxGeometry relative="1" as="geometry">
                        <mxPoint x="630" y="-10" as="sourcePoint"/>
                        <mxPoint x="490" y="45" as="targetPoint"/>
                    </mxGeometry>
                </mxCell>
                <mxCell id="27" value="Y" style="edgeStyle=orthogonalEdgeStyle;html=1;exitX=1;exitY=0.5;exitDx=0;exitDy=0;fontSize=10;elbow=vertical;" edge="1" parent="1" source="25" target="9">
                    <mxGeometry relative="1" as="geometry"/>
                </mxCell>
                <mxCell id="29" value="N" style="edgeStyle=orthogonalEdgeStyle;html=1;exitX=0.5;exitY=0;exitDx=0;exitDy=0;entryX=0.5;entryY=1;entryDx=0;entryDy=0;fontSize=10;elbow=vertical;" edge="1" parent="1" source="25" target="28">
                    <mxGeometry relative="1" as="geometry"/>
                </mxCell>
                <mxCell id="25" value="Http Response Is OK?" style="rhombus;whiteSpace=wrap;html=1;fontSize=10;" vertex="1" parent="1">
                    <mxGeometry x="355" y="-210" width="130" height="130" as="geometry"/>
                </mxCell>
                <mxCell id="28" value="Log Failed Messages" style="shape=process;whiteSpace=wrap;html=1;backgroundOutline=1;fontSize=10;" vertex="1" parent="1">
                    <mxGeometry x="360" y="-340" width="120" height="60" as="geometry"/>
                </mxCell>
                <mxCell id="30" value="Send SMS Microservice Architecture" style="text;html=1;align=center;verticalAlign=middle;resizable=0;points=[];autosize=1;strokeColor=#d79b00;fillColor=#ffe6cc;fontSize=23;" vertex="1" parent="1">
                    <mxGeometry x="-40" y="-80" width="400" height="40" as="geometry"/>
                </mxCell>
            </root>
        </mxGraphModel>
    </diagram>
</mxfile>